# AST/ASF file generated using VICON BodyLanguage
# -----------------------------------------------
:version 1.10
:name VICON
:units
  mass 1.0
  length 0.45
  angle deg
:documentation
   .ast/.asf automatically generated from VICON data using
   VICON BodyBuilder and BodyLanguage model FoxedUp or BRILLIANT.MOD
:root
   order TX TY TZ RX RY RZ
   axis XYZ
   position 0 0 0  
   orientation 0 0 0 
:bonedata
  begin
     id 1 
     name lhipjoint
     direction 0.700308 -0.549349 0.455834 
     length 2.59063 
     axis 0 0 0  XYZ
  end
  begin
     id 2 
     name lfemur
     direction 0.34202 -0.939693 0  
     length 6.31066  
     axis 0 0 20  XYZ
    dof rx ry rz
    limits (-160.0 20.0)
           (-70.0 70.0)
           (-60.0 70.0)
  end
  begin
     id 3 
     name ltibia
     direction 0.34202 -0.939693 0   
     length 7.36093   
     axis 0 0 20   XYZ
    dof rx
    limits (-10.0 170.0)
  end
  begin
     id 4 
     name lfoot
     direction 0.0905332 -0.248738 0.96433   
     length 2.0233   
     axis -90 7.62852e-016 20   XYZ
    dof rx rz
    limits (-45.0 90.0)
           (-70.0 20.0)
  end
  begin
     id 5 
     name ltoes
     direction 1.53573e-011 -4.21855e-011 1   
     length 1.01524   
     axis -90 7.62852e-016 20   XYZ
    dof rx
    limits (-90.0 20.0)
  end
  begin
     id 6 
     name rhipjoint
     direction -0.61416 -0.607328 0.503944   
     length 2.34332  
     axis 0 0 0  XYZ 
  end
  begin
     id 7 
     name rfemur
     direction -0.34202 -0.939693 0   
     length 6.58548   
     axis 0 0 -20   XYZ
    dof rx ry rz
    limits (-160.0 20.0)
           (-70.0 70.0)
           (-70.0 60.0)
  end
  begin
     id 8 
     name rtibia
     direction -0.34202 -0.939693 0   
     length 7.20707   
     axis 0 0 -20   XYZ
    dof rx
    limits (-10.0 170.0)
 end
 begin
     id 9 
     name rfoot
     direction -0.136772 -0.375778 0.916561   
     length 1.92184  
     axis -90 -7.62852e-016 -20   XYZ
    dof rx rz
    limits (-45.0 90.0)
           (-20.0 70.0)
  end
  begin
     id 10 
     name rtoes
     direction -1.53535e-011 -4.21828e-011 1   
     length 0.951089   
     axis -90 -7.62852e-016 -20   XYZ
    dof rx
    limits (-90.0 20.0)
  end
  begin
     id 11 
     name lowerback
     direction -0.0444974 0.988086 -0.147332   
     length 1.9609   
     axis 0 0 0   XYZ
    dof rx ry rz
    limits (-20.0 45.0)
           (-30.0 30.0)
           (-30.0 30.0)
  end
  begin
     id 12 
     name upperback
     direction 0.00613146 0.999513 0.0306081   
     length 1.94944   
     axis 0 0 0   XYZ
    dof rx ry rz
    limits (-20.0 45.0)
           (-30.0 30.0)
           (-30.0 30.0)
  end
  begin
     id 13 
     name thorax
     direction 0.0254621 0.994518 0.101418   
     length 2.0119   
     axis 0 0 0   XYZ
    dof rx ry rz
    limits (-20.0 45.0)
           (-30.0 30.0)
           (-30.0 30.0)
  end
  begin
     id 14 
     name lowerneck
     direction 0.0168698 0.977854 0.208608   
     length 1.6375   
     axis 0 0 0   XYZ
    dof rx ry rz
    limits (-20.0 45.0)
           (-30.0 30.0)
           (-30.0 30.0)
  end
  begin
     id 15 
     name upperneck
     direction -0.0283988 0.989338 -0.142843   
     length 1.6851   
     axis 0 0 0   XYZ
    dof rx ry rz
    limits (-20.0 45.0)
           (-30.0 30.0)
           (-30.0 30.0)
  end
  begin
     id 16
     name head
     direction -0.0129422 0.99741 -0.0707489  
     length 1.69029  
     axis 0 0 0   XYZ
    dof rx ry rz
    limits (-20.0 45.0)
           (-30.0 30.0)
           (-30.0 30.0)
  end
  begin
     id 17 
     name lclavicle
     direction 0.820295 0.564628 -0.0911715  
     length 3.16484  
     axis 0 0 0   XYZ
    dof ry rz
    limits (-20.0 10.0)
           (0.0 20.0)
  end
  begin
     id 18 
     name lhumerus
     direction 1 -4.48969e-011 1.00186e-027   
     length 5.17853   
     axis 180 -30 -90   XYZ
    dof rx ry rz
    limits (-60.0 90.0)
           (-90.0 90.0)
           (-90.0 90.0)
  end
  begin
     id 19
     name lradius
     direction 1 -4.48966e-011 -1.52922e-027   
     length 3.40399   
     axis 180 -30 -90   XYZ
    dof rx
    limits (-10.0 170.0)
  end
  begin
     id 20
     name lwrist
     direction 1 -4.48981e-011 -3.80893e-027   
     length 1.70199   
     axis 1.1049e-015 90 90   XYZ
    dof ry
    limits (-180.0 0.0)
 end
  begin
     id 21 
     name lhand
     direction 1 -4.48957e-011 -7.61786e-027   
     length 0.708964   
     axis 4.86085e-015 90 90   XYZ
    dof rx rz
    limits (-90.0 90.0)
           (-45.0 45.0)
  end
  begin
     id 22 
     name lfingers
     direction 1 -4.48929e-011 -1.52357e-026   
     length 0.571585   
     axis 9.7217e-015 90 90   XYZ
    dof rx
    limits (0.0 90.0)
  end
  begin
     id 23
     name lthumb
     direction 0.707107 -6.34905e-011 0.707107   
     length 0.820685   
     axis -90 45 2.85299e-015   XYZ
    dof rx rz
    limits (-45.0 45.0)
           (-45.0 45.0)
  end
  begin
     id 24 
     name rclavicle
     direction -0.858602 0.463947 -0.218075   
     length 3.35137  
     axis 0 0 0   XYZ 
    dof ry rz
    limits (-10.0 20.0)
           (-20.0 0.0)
  end
  begin
     id 25 
     name rhumerus
     direction -1 -4.48969e-011 -1.98511e-027  
     length 5.42351   
     axis 180 30 90   XYZ
    dof rx ry rz
    limits (-90.0 60.0)
           (-90.0 90.0)
           (-90.0 90.0)
  end
  begin
     id 26 
     name rradius
     direction -1 -4.48961e-011 -2.82624e-027   
     length 3.42066   
     axis 180 30 90   XYZ
    dof rx
    limits (-10.0 170.0)
  end
  begin
     id 27 
     name rwrist
     direction -1 -4.48966e-011 -3.80893e-027   
     length 1.71033   
     axis 1.1049e-015 -90 -90   XYZ
    dof ry
    limits (-180.0 0.0)
  end
  begin
     id 28
     name rhand
     direction -1 -4.48964e-011 -7.61786e-027   
     length 0.743608   
     axis 4.86085e-015 -90 -90   XYZ
    dof rx rz
    limits (-90.0 90.0)
           (-45.0 45.0)
  end
  begin
     id 29
     name rfingers
     direction -1 -4.48961e-011 -1.52357e-026   
     length 0.599516   
     axis 9.7217e-015 -90 -90   XYZ
    dof rx
    limits (0.0 90.0)
  end
  begin
     id 30
     name rthumb
     direction -0.707107 -6.34913e-011 0.707107   
     length 0.860789   
     axis -90 -45 -2.85299e-015   XYZ
    dof rx rz
    limits (-45.0 45.0)
           (-45.0 45.0)
  end
:hierarchy
  begin
    root lhipjoint rhipjoint lowerback
    lhipjoint lfemur
    lfemur ltibia
    ltibia lfoot
    lfoot ltoes
    rhipjoint rfemur
    rfemur rtibia
    rtibia rfoot
    rfoot rtoes
    lowerback upperback
    upperback thorax
    thorax lowerneck lclavicle rclavicle
    lowerneck upperneck
    upperneck head
    lclavicle lhumerus
    lhumerus lradius
    lradius lwrist
    lwrist lhand lthumb
    lhand lfingers
    rclavicle rhumerus
    rhumerus rradius
    rradius rwrist
    rwrist rhand rthumb
    rhand rfingers
  end

#!OML:ASF E:\mmandel\Project 1\Capture day 1\Session 2\Subject.ASF
:FULLY-SPECIFIED
:DEGREES
734
root 7.37363 14.615 -1.67658 43.6341 86.6468 23.8786
lowerback 17.7037 2.11487 -5.88556
upperback 2.05081 1.69388 -0.932683
thorax -7.8536 1.0367 1.91856
lowerneck -16.2287 1.639 3.79807
upperneck 4.08073 2.19259 -7.86963
head 3.96902 0.738446 -2.87601
rclavicle -3.83654e-014 -3.0911e-014
rhumerus -17.1351 7.3638 -82.6221
rradius 85.2555
rwrist -17.6292
rhand -15.4754 33.2577
rfingers 7.12502
rthumb 10.7063 3.55051
lclavicle -3.83654e-014 -3.0911e-014
lhumerus -9.92406 -12.6901 78.9897
lradius 78.0064
lwrist 22.6629
lhand -14.4804 -31.8254
lfingers 7.12502
lthumb 11.6658 -2.17017
rfemur -58.4888 -11.5267 12.5645
rtibia 67.8539
rfoot -29.1647 -4.37083
rtoes -16.0161
lfemur -56.4699 21.8454 -18.7212
ltibia 64.5857
lfoot -23.5496 -6.76935
ltoes 3.17006
735
root 7.35292 14.5981 -1.65495 35.8357 86.9549 15.985
lowerback 18.109 2.14413 -5.42847
upperback 1.89567 1.79492 -0.757137
thorax -8.24613 1.08089 1.81102
lowerneck -16.0908 1.54908 3.58453
upperneck 4.15861 2.10001 -7.6521
head 3.95996 0.70123 -2.78117
rclavicle 1.04362e-014 -2.03754e-014
rhumerus -17.1242 7.28174 -82.5632
rradius 85.2656
rwrist -17.6271
rhand -15.4207 33.2011
rfingers 7.12502
rthumb 10.759 3.49664
lclavicle 1.04362e-014 -2.03754e-014
lhumerus -9.99075 -12.8422 79.0189
lradius 78.0739
lwrist 22.7708
lhand -14.602 -31.7115
lfingers 7.12502
lthumb 11.5486 -2.04967
rfemur -58.75 -11.1042 13.2318
rtibia 67.8972
rfoot -29.1034 -4.72929
rtoes -15.772
lfemur -56.8047 21.991 -18.0387
ltibia 64.5502
lfoot -23.2503 -6.79967
ltoes 2.70354
736
root 7.37835 14.6157 -1.6467 46.0848 86.5293 26.35
lowerback 17.8281 2.15301 -5.95042
upperback 1.93988 1.71205 -0.964822
thorax -8.04554 1.05188 1.91045
lowerneck -15.9784 1.40898 3.27386
upperneck 4.20209 1.94544 -7.30555
head 3.93839 0.638903 -2.63528
rclavicle 1.31198e-014 -1.38155e-014
rhumerus -17.2347 7.33769 -82.5587
rradius 85.2933
rwrist -17.604
rhand -15.3544 33.1459
rfingers 7.12502
rthumb 10.8229 3.44479
lclavicle 1.31198e-014 -1.38155e-014
lhumerus -10.3229 -12.9053 79.0479
lradius 78.2221
lwrist 22.8312
lhand -14.6878 -31.6956
lfingers 7.12502
lthumb 11.4659 -2.02912
rfemur -58.5044 -11.5038 12.4734
rtibia 67.913
rfoot -29.1898 -4.42295
rtoes -15.9741
lfemur -56.2728 21.8702 -18.7729
ltibia 64.3296
lfoot -23.5074 -6.79425
ltoes 2.84038
737
root 7.38764 14.6212 -1.63104 47.3541 86.4249 27.4966
lowerback 17.5897 2.15196 -6.02458
upperback 1.92605 1.70933 -1.00083
thorax -7.93046 1.04965 1.92014
lowerneck -15.9851 1.36549 3.09532
upperneck 4.11199 1.90757 -7.16842
head 3.90603 0.626681 -2.56634
rclavicle -3.71727e-014 -2.71341e-014
rhumerus -17.2255 7.29144 -82.5646
rradius 85.3047
rwrist -17.5339
rhand -15.311 33.1587
rfingers 7.12502
rthumb 10.8648 3.45976
lclavicle -3.71727e-014 -2.71341e-014
lhumerus -10.3939 -12.8917 79.0278
lradius 78.1959
lwrist 22.9076
lhand -14.5733 -31.8281
lfingers 7.12502
lthumb 11.5763 -2.16778
rfemur -58.6217 -11.5103 12.4159
rtibia 67.9536
rfoot -29.2441 -4.42703
rtoes -15.8608
lfemur -56.3297 21.9779 -18.9317
ltibia 64.2772
lfoot -23.5105 -6.8652
ltoes 2.86997
738
root 7.38072 14.6153 -1.60923 43.5662 86.6514 23.6009
lowerback 17.6503 2.14706 -5.77864
upperback 1.88561 1.75002 -0.889736
thorax -8.00764 1.06403 1.88885
lowerneck -16.0689 1.36932 3.25028
upperneck 4.04425 1.90295 -7.42238
head 3.90354 0.614071 -2.6708
rclavicle -1.26228e-014 2.19657e-014
rhumerus -17.1406 7.15057 -82.5878
rradius 85.2717
rwrist -17.4509
rhand -15.3228 33.2735
rfingers 7.12502
rthumb 10.8534 3.574
lclavicle -1.26228e-014 2.19657e-014
lhumerus -10.2751 -12.9193 78.954
lradius 78.1014
lwrist 23.0669
lhand -14.3826 -31.8878
lfingers 7.12502
lthumb 11.7602 -2.2379
rfemur -58.793 -11.2531 12.8547
rtibia 67.9982
rfoot -29.2787 -4.65795
rtoes -15.6784
lfemur -56.5684 22.1245 -18.538
ltibia 64.2458
lfoot -23.3171 -6.97467
ltoes 2.96358
